# xmcd
#
# Track frame offsets:
#	150
#	21285
#	37573
#	59923
#	77888
#	100444
#	122808
#	147601
#	169785
#	192341
#	209013
#	230468
#	244736
#	269758
#
# Disc length: 3880 seconds
#
# Revision: 0
# Processed by: cddbd v1.4PL0 Copyright (c) Steve Scherf et al.
# Submitted via: audiograbber 1.81.03
#
DISCID=d70f260e
DTITLE=Kid Rock - Cocky
DYEAR=2001
DGENRE=Rock
TTITLE0=Trucker Anthem
TTITLE1=Forever
TTITLE2=Lay It On Me
TTITLE3=Cocky
TTITLE4=What I Learned Out On The Road
TTITLE5=I'm Wrong But You Ain't Right
TTITLE6=Lonely Road Of Faith
TTITLE7=You Never Met a Motherfucker Quite Like Me
TTITLE8=Picture
TTITLE9=I'm A Dog
TTITLE10=Midnight Train To Memphis
TTITLE11=Baby Come Home
TTITLE12=Drunk In The Morning
TTITLE13=Wcsr
EXTD=YEAR: 2001 ID3G:  17
EXTT0=
EXTT1=
EXTT2=
EXTT3=
EXTT4=
EXTT5=
EXTT6=
EXTT7=
EXTT8=
EXTT9=
EXTT10=
EXTT11=
EXTT12=
EXTT13=
PLAYORDER=
